<svg width="24" height="24" viewBox="0 0 24 24" fill="none" xmlns="http://www.w3.org/2000/svg">
<g clip-path="url(#clip0_1_45)">
<path d="M19.4301 10.1999C19.386 9.88041 19.3321 9.56355 19.2441 9.23514C19.1561 8.90672 19.0443 8.60539 18.9229 8.30665L20.5339 6.16676C20.6786 5.97269 20.657 5.69895 20.4842 5.51751L17.6568 2.69304C17.484 2.5116 17.2025 2.50421 17.0107 2.63842L14.8643 4.2488C14.2585 3.99702 13.6322 3.8232 12.9783 3.7396L11.9253 1.27825C11.8342 1.05419 11.5848 0.934677 11.3433 0.999382L7.47963 2.03466C7.23815 2.09936 7.08189 2.32758 7.11503 2.56717L7.43385 5.22522C6.90934 5.62458 6.45642 6.09794 6.05508 6.60923L3.39111 6.28777C3.14565 6.26036 2.9178 6.41459 2.85883 6.65815L1.82249 10.5179C1.75386 10.764 1.8817 11.0093 2.10405 11.105L4.5692 12.1527C4.61339 12.4721 4.66982 12.7987 4.75523 13.1174C4.84064 13.4362 4.95503 13.7472 5.07649 14.0459L3.46544 16.1858C3.32073 16.3799 3.34232 16.6536 3.51517 16.835L6.34254 19.6595C6.51539 19.841 6.79689 19.8484 6.98869 19.7141L9.13503 18.1038C9.74084 18.3555 10.3672 18.5294 11.0211 18.613L12.074 21.0743C12.1651 21.2984 12.4145 21.4179 12.656 21.3532L16.5197 20.3179C16.7612 20.2532 16.9175 20.025 16.8843 19.7854L16.5655 17.1273C17.09 16.728 17.5429 16.2546 17.9443 15.7433L20.6082 16.0648C20.8537 16.0922 21.0815 15.938 21.1405 15.6944L22.1769 11.8347C22.2358 11.5911 22.1177 11.3432 21.8953 11.2475L19.4301 10.1999ZM12.9055 14.557C11.0413 15.0565 9.11846 13.9464 8.61893 12.0821C8.11941 10.2179 9.22957 8.29506 11.0938 7.79554C12.958 7.29602 14.8809 8.40617 15.3804 10.2704C15.8799 12.1346 14.7698 14.0575 12.9055 14.557Z" fill="#625E55"/>
</g>
<defs>
<clipPath id="clip0_1_45">
<rect width="24" height="24" fill="white"/>
</clipPath>
</defs>
</svg>
